<?xml version="1.0" standalone="no"?>
<!DOCTYPE svg PUBLIC "-//W3C//DTD SVG 20010904//EN"
 "http://www.w3.org/TR/2001/REC-SVG-20010904/DTD/svg10.dtd">
<svg version="1.0" xmlns="http://www.w3.org/2000/svg"
 width="16.000000pt" height="16.000000pt" viewBox="0 0 16.000000 16.000000"
 preserveAspectRatio="xMidYMid meet">
<metadata>
Created by potrace 1.11, written by Peter Selinger 2001-2013
</metadata>
<g transform="translate(0.000000,16.000000) scale(0.004790,-0.004790)"
fill="#000000" stroke="none">
<path d="M907 2554 c-1 -1 -42 -4 -92 -7 -386 -24 -643 -206 -757 -537 -66
-193 -65 -511 3 -713 81 -241 278 -437 496 -492 79 -20 199 -23 240 -6 56 23
67 105 19 136 -11 7 -65 20 -119 29 -156 26 -290 89 -366 172 -144 155 -197
506 -120 784 75 271 272 424 592 458 43 5 450 8 905 7 739 -1 836 -3 916 -19
372 -72 540 -295 539 -716 0 -170 -22 -280 -78 -394 -43 -86 -88 -135 -176
-192 -101 -66 -185 -95 -309 -109 -61 -7 -100 -27 -101 -53 0 -9 -2 -26 -4
-36 -5 -27 47 -76 82 -77 133 -6 214 8 318 56 297 136 451 438 438 855 -13
404 -220 706 -552 804 -160 47 -189 49 -1054 50 -450 1 -819 1 -820 0z"/>
<path d="M1237 1716 c-116 -42 -188 -148 -183 -272 7 -146 124 -257 272 -257
119 0 232 84 261 195 15 57 7 143 -18 195 -56 117 -212 182 -332 139z"/>
<path d="M2279 1717 c-85 -32 -140 -83 -173 -160 -20 -49 -16 -170 7 -214 88
-166 291 -208 425 -88 183 165 84 456 -162 471 -36 3 -75 -1 -97 -9z"/>
</g>
</svg>
